<svg width="422" height="105" viewBox="0 0 422 105" fill="none" xmlns="http://www.w3.org/2000/svg">
<rect width="202" height="38" transform="translate(212 67)" fill="#353535"/>
<path d="M227.878 95.1998C226.039 95.1998 224.574 94.5271 223.484 93.1817C222.411 91.8364 221.875 90.0142 221.875 87.7151C221.875 85.4502 222.454 83.6109 223.612 82.1975C224.787 80.784 226.286 80.0772 228.108 80.0772C229.181 80.0772 230.117 80.3582 230.918 80.9202C231.718 81.4652 232.348 82.2741 232.808 83.347H232.885V74.0742H235.235V94.8932H232.961V91.6746H232.859C232.399 92.7985 231.735 93.6671 230.867 94.2801C230.015 94.8932 229.019 95.1998 227.878 95.1998ZM224.276 87.6896C224.276 89.4266 224.651 90.7805 225.4 91.7512C226.167 92.7219 227.222 93.2073 228.568 93.2073C229.93 93.2073 230.994 92.7219 231.761 91.7512C232.527 90.7635 232.91 89.4011 232.91 87.664C232.91 85.927 232.527 84.5646 231.761 83.5769C231.012 82.5721 229.973 82.0697 228.644 82.0697C227.282 82.0697 226.209 82.5721 225.426 83.5769C224.659 84.5646 224.276 85.9355 224.276 87.6896Z" fill="#F7F5F2"/>
<path d="M245.238 95.2253C243.109 95.2253 241.414 94.5441 240.154 93.1817C238.911 91.8193 238.29 89.9801 238.29 87.664C238.29 85.4331 238.92 83.6109 240.18 82.1975C241.44 80.784 243.066 80.0772 245.059 80.0772C246.268 80.0772 247.332 80.3582 248.252 80.9202C249.172 81.4652 249.887 82.2485 250.398 83.2703C250.721 83.9175 250.96 84.6498 251.113 85.4672C251.283 86.2676 251.368 87.1446 251.368 88.0983H240.665C240.733 89.6821 241.176 90.9423 241.994 91.8789C242.828 92.7985 243.926 93.2584 245.289 93.2584C246.362 93.2584 247.239 93.0029 247.92 92.492C248.618 91.9811 249.18 91.1807 249.606 90.0908L251.573 90.7805C251.028 92.211 250.21 93.3094 249.121 94.0758C248.031 94.8421 246.736 95.2253 245.238 95.2253ZM248.482 84.2155C248.158 83.5173 247.699 82.9808 247.102 82.6062C246.506 82.2145 245.817 82.0186 245.033 82.0186C243.824 82.0186 242.836 82.4188 242.07 83.2193C241.304 84.0026 240.853 85.084 240.716 86.4634H248.967C248.95 85.9866 248.899 85.5779 248.814 85.2373C248.746 84.8797 248.635 84.5391 248.482 84.2155Z" fill="#F7F5F2"/>
<path d="M254.353 94.8932V74.0742H256.703V94.8932H254.353Z" fill="#F7F5F2"/>
<path d="M263.268 76.782H260.662V74.0742H263.268V76.782ZM260.79 94.8932V80.3838H263.114V94.8932H260.79Z" fill="#F7F5F2"/>
<path d="M276.779 80.3838H279.155L273.765 94.8932H271.032L265.437 80.3838H267.864L272.462 92.773L276.779 80.3838Z" fill="#F7F5F2"/>
<path d="M287.172 95.2253C285.043 95.2253 283.349 94.5441 282.089 93.1817C280.845 91.8193 280.224 89.9801 280.224 87.664C280.224 85.4331 280.854 83.6109 282.114 82.1975C283.374 80.784 285.001 80.0772 286.993 80.0772C288.202 80.0772 289.267 80.3582 290.186 80.9202C291.106 81.4652 291.821 82.2485 292.332 83.2703C292.656 83.9175 292.894 84.6498 293.047 85.4672C293.218 86.2676 293.303 87.1446 293.303 88.0983H282.6C282.668 89.6821 283.11 90.9423 283.928 91.8789C284.762 92.7985 285.861 93.2584 287.223 93.2584C288.296 93.2584 289.173 93.0029 289.854 92.492C290.552 91.9811 291.114 91.1807 291.54 90.0908L293.507 90.7805C292.962 92.211 292.145 93.3094 291.055 94.0758C289.965 94.8421 288.671 95.2253 287.172 95.2253ZM290.416 84.2155C290.093 83.5173 289.633 82.9808 289.037 82.6062C288.441 82.2145 287.751 82.0186 286.968 82.0186C285.759 82.0186 284.771 82.4188 284.004 83.2193C283.238 84.0026 282.787 85.084 282.651 86.4634H290.902C290.885 85.9866 290.833 85.5779 290.748 85.2373C290.68 84.8797 290.57 84.5391 290.416 84.2155Z" fill="#F7F5F2"/>
<path d="M302.675 80.1539C303.782 80.1539 304.633 80.52 305.229 81.2523C305.825 81.9676 306.123 82.9893 306.123 84.3177C306.123 84.6412 306.098 84.9989 306.047 85.3906C306.013 85.7652 305.962 86.0973 305.894 86.3868L303.697 86.6678C303.765 86.3613 303.816 86.0121 303.85 85.6205C303.901 85.2117 303.927 84.8711 303.927 84.5987C303.927 83.6961 303.748 83.0149 303.39 82.5551C303.033 82.0783 302.513 81.8398 301.832 81.8398C300.827 81.8398 300.027 82.3678 299.431 83.4236C298.852 84.4624 298.562 85.8759 298.562 87.664V94.8932H296.212V80.3838H298.511V83.5513H298.562C298.954 82.4614 299.499 81.627 300.197 81.0479C300.912 80.4519 301.738 80.1539 302.675 80.1539Z" fill="#F7F5F2"/>
<path d="M321.413 80.3838L315.997 94.6633C315.231 96.7069 314.448 98.0948 313.647 98.8271C312.864 99.5594 311.757 99.9255 310.326 99.9255C309.73 99.9255 309.092 99.8489 308.411 99.6956C307.746 99.5424 307.201 99.355 306.776 99.1336L307.465 97.1667C307.976 97.4051 308.47 97.5754 308.947 97.6776C309.441 97.7968 309.943 97.8564 310.454 97.8564C310.999 97.8564 311.476 97.7287 311.885 97.4732C312.293 97.2178 312.659 96.8176 312.983 96.2726C313.085 96.1023 313.179 95.9235 313.264 95.7362C313.366 95.5489 313.468 95.3275 313.571 95.072L307.695 80.3838H310.148L314.771 92.3387L319.037 80.3838H321.413Z" fill="#F7F5F2"/>
<path d="M328.592 94.8932V80.3838H330.866V83.7557H330.942C331.402 82.5806 332.049 81.678 332.884 81.0479C333.718 80.4008 334.663 80.0772 335.719 80.0772C336.928 80.0772 337.907 80.4264 338.657 81.1246C339.423 81.8058 339.917 82.7935 340.138 84.0878H340.215C340.675 82.8105 341.33 81.8228 342.182 81.1246C343.033 80.4264 344.013 80.0772 345.12 80.0772C346.601 80.0772 347.742 80.5711 348.543 81.5588C349.343 82.5466 349.743 83.9686 349.743 85.8248V94.8932H347.393V86.2591C347.393 84.8456 347.146 83.7898 346.652 83.0915C346.175 82.3933 345.435 82.0442 344.43 82.0442C343.153 82.0442 342.148 82.5551 341.416 83.5769C340.7 84.5987 340.343 86.0121 340.343 87.8173V94.8932H337.993V86.2591C337.993 84.8286 337.746 83.7727 337.252 83.0915C336.758 82.3933 335.992 82.0442 334.953 82.0442C333.693 82.0442 332.705 82.5551 331.99 83.5769C331.291 84.5987 330.942 86.0121 330.942 87.8173V94.8932H328.592Z" fill="#F7F5F2"/>
<path d="M359.566 95.2253C357.437 95.2253 355.742 94.5441 354.482 93.1817C353.239 91.8193 352.617 89.9801 352.617 87.664C352.617 85.4331 353.247 83.6109 354.508 82.1975C355.768 80.784 357.394 80.0772 359.387 80.0772C360.596 80.0772 361.66 80.3582 362.58 80.9202C363.499 81.4652 364.215 82.2485 364.726 83.2703C365.049 83.9175 365.288 84.6498 365.441 85.4672C365.611 86.2676 365.696 87.1446 365.696 88.0983H354.993C355.061 89.6821 355.504 90.9423 356.321 91.8789C357.156 92.7985 358.254 93.2584 359.617 93.2584C360.69 93.2584 361.567 93.0029 362.248 92.492C362.946 91.9811 363.508 91.1807 363.934 90.0908L365.901 90.7805C365.356 92.211 364.538 93.3094 363.448 94.0758C362.358 94.8421 361.064 95.2253 359.566 95.2253ZM362.81 84.2155C362.486 83.5173 362.026 82.9808 361.43 82.6062C360.834 82.2145 360.145 82.0186 359.361 82.0186C358.152 82.0186 357.164 82.4188 356.398 83.2193C355.632 84.0026 355.18 85.084 355.044 86.4634H363.295C363.278 85.9866 363.227 85.5779 363.142 85.2373C363.074 84.8797 362.963 84.5391 362.81 84.2155Z" fill="#F7F5F2"/>
<path d="M373.937 95.1998C372.098 95.1998 370.633 94.5271 369.544 93.1817C368.471 91.8364 367.934 90.0142 367.934 87.7151C367.934 85.4502 368.513 83.6109 369.671 82.1975C370.846 80.784 372.345 80.0772 374.167 80.0772C375.24 80.0772 376.177 80.3582 376.977 80.9202C377.778 81.4652 378.408 82.2741 378.867 83.347H378.944V74.0742H381.294V94.8932H379.021V91.6746H378.919C378.459 92.7985 377.795 93.6671 376.926 94.2801C376.075 94.8932 375.078 95.1998 373.937 95.1998ZM370.335 87.6896C370.335 89.4266 370.71 90.7805 371.459 91.7512C372.226 92.7219 373.282 93.2073 374.627 93.2073C375.989 93.2073 377.054 92.7219 377.82 91.7512C378.586 90.7635 378.97 89.4011 378.97 87.664C378.97 85.927 378.586 84.5646 377.82 83.5769C377.071 82.5721 376.032 82.0697 374.704 82.0697C373.341 82.0697 372.268 82.5721 371.485 83.5769C370.719 84.5646 370.335 85.9355 370.335 87.6896Z" fill="#F7F5F2"/>
<path d="M387.848 76.782H385.243V74.0742H387.848V76.782ZM385.371 94.8932V80.3838H387.695V94.8932H385.371Z" fill="#F7F5F2"/>
<path d="M403.71 95.072C402.654 95.072 401.854 94.8081 401.309 94.2801C400.764 93.7522 400.491 92.9688 400.491 91.93V91.8278H400.415C399.972 92.9178 399.316 93.7607 398.448 94.3568C397.596 94.9358 396.583 95.2253 395.408 95.2253C394.045 95.2253 392.964 94.8677 392.164 94.1524C391.38 93.4372 390.989 92.4579 390.989 91.2148C390.989 90.5506 391.099 89.9631 391.321 89.4522C391.542 88.9243 391.874 88.4644 392.317 88.0728C392.692 87.7492 393.177 87.4852 393.773 87.2809C394.369 87.0595 395.076 86.8807 395.893 86.7444L397.988 86.4123C398.908 86.2591 399.555 86.0377 399.929 85.7482C400.321 85.4587 400.517 85.0244 400.517 84.4454C400.517 83.6961 400.253 83.1 399.725 82.6573C399.197 82.2145 398.473 81.9931 397.554 81.9931C396.515 81.9931 395.68 82.2656 395.05 82.8105C394.437 83.3385 393.977 84.1729 393.671 85.3139L391.474 84.8541C391.9 83.3214 392.632 82.1464 393.671 81.3289C394.727 80.4945 396.021 80.0772 397.554 80.0772C399.24 80.0772 400.534 80.5285 401.436 81.4311C402.339 82.3337 402.79 83.6195 402.79 85.2884V91.2914C402.79 92.0237 402.91 92.5346 403.148 92.8241C403.403 93.0966 403.855 93.2328 404.502 93.2328C404.604 93.2328 404.698 93.2328 404.783 93.2328C404.868 93.2158 404.987 93.1987 405.14 93.1817V94.8677C405.004 94.9358 404.8 94.9869 404.527 95.0209C404.272 95.055 403.999 95.072 403.71 95.072ZM393.39 90.9338C393.39 91.7171 393.628 92.3302 394.105 92.773C394.599 93.2158 395.28 93.4372 396.149 93.4372C397.494 93.4372 398.567 92.9518 399.367 91.9811C400.168 91.0104 400.568 89.7161 400.568 88.0983V86.9999C400.381 87.1702 400.108 87.3234 399.75 87.4597C399.393 87.5789 398.89 87.7066 398.243 87.8429L396.327 88.2005C395.272 88.3878 394.514 88.6943 394.054 89.1201C393.611 89.5288 393.39 90.1334 393.39 90.9338Z" fill="#F7F5F2"/>
<path fill-rule="evenodd" clip-rule="evenodd" d="M357.767 57.6326H370.584V0H356.652V17.0902C356.652 18.6483 356.729 19.2441 357.095 22.0549H356.729C354.147 16.7236 350.954 14.646 345.394 14.646C341.544 14.646 338.122 15.914 335.388 18.3581C331.447 21.7647 329.155 28.7305 329.155 36.8879C329.155 43.9912 331.157 50.8196 334.349 54.2261C337.236 57.3271 341.239 59.1144 345.47 59.1144C351.245 59.1144 354.88 56.6703 357.996 50.7432H358.439C357.92 53.6303 357.767 55.051 357.767 56.3036V57.6326ZM349.686 47.5505C345.012 47.5505 342.491 44.0676 342.491 37.835H342.507C342.507 31.3885 345.531 27.7528 350.282 27.7528C355.033 27.7528 357.92 31.2358 357.92 37.0253C357.92 43.2579 354.361 47.5505 349.686 47.5505ZM218.879 11.8046C224.286 11.8046 227.326 10.0326 227.326 6.99269C227.326 3.58615 224.653 2.028 218.879 2.028C213.609 2.028 210.721 3.80001 210.721 6.91631C210.721 10.0326 213.471 11.8046 218.879 11.8046ZM212.05 28.5776H193.018C193.171 32.6563 193.247 35.2532 193.247 39.9887C193.247 43.3953 193.537 45.3201 194.362 46.588C195.111 47.7795 196.654 48.5127 198.441 48.5127C201.328 48.5127 203.711 47.2601 205.926 44.4341V54.0732C202.291 57.7089 198.808 59.1143 193.476 59.1143C188.145 59.1143 184.357 57.4034 182.355 54.3023C180.583 51.4916 179.911 47.7031 179.911 40.2179C179.911 35.9864 179.988 33.3284 180.278 28.9442H173.388V20.1911C179.239 18.8621 183.914 13.5155 185.915 5.95388H193.033V16.479H216.329L216.314 16.4943L225.982 16.4943V57.6326H212.05V28.5776ZM156.217 49.628C149.557 49.628 145.692 46.6644 145.325 41.0276L145.34 41.0429H171.585C171.951 38.7362 172.028 37.5599 172.028 35.4824C172.028 22.1312 165.276 14.646 153.269 14.646C140.147 14.646 132.509 22.2076 132.509 36.3684C132.509 50.5292 140.36 59.1296 153.33 59.1296C160.296 59.1296 165.26 57.1285 169.706 52.454V43.1815H169.186C166.223 47.6268 162.22 49.628 156.217 49.628ZM153.926 25.2322C159.104 25.2322 161.777 27.2334 162.74 31.8314H145.402C145.631 27.5236 148.747 25.2322 153.926 25.2322ZM124.901 62.3837C127.788 59.2674 128.537 56.0137 128.537 46.8939H128.522V16.1434H115.629L116.072 22.9564H115.629C113.78 17.3349 109.916 14.6616 103.622 14.6616C99.5432 14.6616 95.8311 15.9906 92.9439 18.5111C89.3846 21.7038 87.3835 27.1879 87.3835 33.7871C87.3835 39.867 89.0791 45.5802 91.8288 48.8339C94.7923 52.3932 99.1765 54.3944 103.988 54.3944C107.334 54.3944 110.588 53.432 112.589 51.8739C114.071 50.7587 114.88 49.4297 116.072 46.4662H116.668C116.467 47.383 116.405 47.7401 116.336 48.1392C116.305 48.3186 116.272 48.5065 116.225 48.7576C115.98 50.6314 115.807 51.7924 115.705 52.2405C114.819 56.3803 111.183 58.5342 105.852 58.5342C100.521 58.5342 95.9228 57.0524 91.4011 53.8597V63.7891C96.0755 66.829 100.444 67.9442 107.41 67.9442C115.568 67.9442 121.632 66.0194 124.901 62.3837ZM108.067 44.8927C103.624 44.8927 100.814 41.413 100.811 35.857C100.814 30.3012 103.548 27.1115 108.296 27.1115C110.221 27.1115 112.299 27.9364 113.551 29.189C114.957 30.5944 115.552 32.5192 115.552 35.4827C115.552 41.3334 112.512 44.8927 108.067 44.8927ZM326.607 6.99269C326.607 10.0326 323.567 11.8046 318.159 11.8046C312.751 11.8046 310.002 10.0326 310.002 6.91631C310.002 3.80001 312.889 2.028 318.159 2.028C323.933 2.028 326.607 3.58615 326.607 6.99269ZM311.331 16.4943H325.262V57.6326H311.331V16.4943ZM245.856 16.1281H232.887V57.6482H246.818V38.156C246.818 34.8259 247.032 33.1913 247.704 31.7096C248.819 29.3418 251.187 27.7837 253.86 27.7837C255.785 27.7837 257.634 28.746 258.382 30.0751C259.039 31.3277 259.192 32.5956 259.192 37.4075V57.6482H273.123V32.3053C273.123 24.0105 272.894 22.8953 270.97 19.8554C268.907 16.5864 264.905 14.6616 260.154 14.6616C255.938 14.6616 252.379 16.1434 249.705 18.9541C247.567 21.1692 246.665 23.1092 245.856 27.4018H245.336C245.779 24.5757 245.856 23.4758 245.856 21.7649V16.1281ZM305.967 30.7318C302.407 27.5392 298.772 26.1338 294.036 26.1338C290.248 26.1338 288.033 27.3253 288.033 29.3265C288.033 31.1749 289.514 31.9234 294.326 32.6566C303.446 34.062 307.448 37.7741 307.448 44.7399C307.448 53.3403 300.849 59.1146 290.92 59.1146C286.108 59.1146 282.167 58.0758 276.912 55.3262V44.0525C280.99 47.5354 284.764 49.0172 289.362 49.0172C293.211 49.0172 295.289 47.902 295.289 45.8245C295.289 44.7857 294.693 43.8997 293.807 43.4567C293.115 43.1105 290.645 42.5402 286.398 41.7458C279.203 40.3404 275.43 35.9562 275.43 29.0668C275.43 20.2525 282.029 14.6157 292.478 14.6157C297.672 14.6157 301.735 15.8072 305.967 18.5416V30.7013V30.7318ZM387.298 41.0276C387.664 46.6644 391.529 49.628 398.19 49.628C404.193 49.628 408.195 47.6268 411.159 43.1815H411.678V52.454C407.233 57.1285 402.268 59.1296 395.302 59.1296C382.333 59.1296 374.481 50.5292 374.481 36.3684C374.481 22.2076 382.119 14.646 395.241 14.646C407.248 14.646 414 22.1312 414 35.4824C414 37.5599 413.924 38.7362 413.557 41.0429H387.313L387.298 41.0276ZM404.712 31.8314C403.75 27.2334 401.077 25.2322 395.898 25.2322C390.72 25.2322 387.603 27.5236 387.374 31.8314H404.712ZM39.8495 5.28646L39.6071 9.61214C39.5801 11.1532 37.412 11.7209 36.6174 10.4367L34.2204 6.841C33.2777 5.42163 33.6548 3.51563 35.0688 2.55587C37.0888 1.10947 40.0515 2.83974 39.8495 5.28646ZM75.5367 3.16344C79.2535 1.06819 84.0073 2.04147 86.5929 5.44794C87.2528 6.31308 87.1181 7.52968 86.2831 8.2326L55.2154 34.3489L76.4794 35.4439C77.5298 35.4979 78.3647 36.3631 78.3916 37.4174C78.5263 42.5812 76.641 47.4882 73.0857 51.2326C69.5305 54.977 64.7364 57.1128 59.592 57.2345H59.0668C58.205 57.2345 57.3566 57.1669 56.5216 57.0588C58.1511 61.1817 59.3631 65.1829 60.1173 68.9949C60.3327 70.0899 59.619 71.1578 58.5282 71.3741C58.407 71.4146 58.2723 71.4146 58.1376 71.4146C57.195 71.4146 56.3466 70.7387 56.158 69.779C55.2827 65.3722 53.7475 60.668 51.6063 55.8016C45.4385 53.3414 40.9945 47.8937 40.0787 41.0402C37.9914 40.0804 35.7963 37.6608 34.8132 35.3087C33.9918 33.3621 32.8336 28.6309 38.1799 24.5215C33.884 18.0465 25.1576 16.2351 18.6531 20.4932C18.5185 20.6014 13.5762 24.1025 7.34105 25.2515C6.31758 25.4407 6.18291 26.3734 6.16945 26.6573C6.15598 26.9412 6.18291 27.8874 7.19292 28.1848C8.12213 28.4552 8.91666 28.4281 9.65734 28.1172C10.398 27.8063 11.2464 27.955 11.8389 28.5092C12.4315 29.0635 12.6335 29.9151 12.3507 30.6721C11.7716 32.2537 12.4315 36.9443 14.5323 40.1751L19.3265 47.5558C22.5181 52.4492 21.1579 59.0594 16.3099 62.2901L3.13943 71.0767C2.78929 71.3065 2.41222 71.4146 2.02169 71.4146C1.36182 71.4146 0.728879 71.0902 0.338343 70.5089C-0.281128 69.5762 -0.0252593 68.319 0.903947 67.6972L14.0744 58.9107C17.0775 56.9101 17.9125 52.8142 15.9463 49.7727L11.1521 42.392C9.29373 39.5262 8.16253 35.579 8.12213 32.4159C7.44879 32.3888 6.76198 32.2672 6.06171 32.0644C3.58383 31.3345 2.00822 29.077 2.14289 26.441C2.27756 23.8186 4.0821 21.7368 6.61385 21.2637C11.8678 20.2964 16.1641 17.3028 16.3698 17.1595L16.3772 17.1543C24.8478 11.5985 36.133 13.9777 41.6274 22.3857L75.5367 3.16344ZM48.0645 36.728C47.7952 35.9305 48.051 35.0654 48.684 34.5246V34.5382L81.8795 6.65103C80.5463 5.9481 78.8899 5.92107 77.5163 6.7051L41.7217 26.9817C39.0687 28.6039 37.8567 30.4693 38.1665 32.497C38.5435 35.0248 40.9675 37.066 41.8159 37.3904H41.9506C42.3815 37.3904 42.799 37.5256 43.1491 37.7824C43.6339 38.1474 43.9302 38.7016 43.9706 39.3099C44.3208 45.3118 48.078 50.1241 53.4108 52.1383C53.6263 52.1653 53.8417 52.2464 54.0438 52.3546C55.7406 52.9088 57.572 53.2062 59.4978 53.1656C63.5647 53.071 67.3624 51.3813 70.1635 48.4209C72.5336 45.9066 73.9745 42.757 74.2977 39.364L49.8825 38.1069C49.0476 38.0663 48.3338 37.5256 48.0645 36.728ZM27.002 24.1977C28.7796 24.1977 30.2475 25.5089 30.5303 27.2122L30.5438 27.2257C28.5911 27.2527 27.0155 28.8478 27.0155 30.8214C27.0155 31.0242 27.0424 31.2269 27.0693 31.4162H27.002C25.0089 31.4162 23.4064 29.8076 23.4064 27.8069C23.4064 25.8063 25.0224 24.1977 27.002 24.1977ZM53.2229 7.85461C53.2229 9.6165 51.8 11.0448 50.0447 11.0448C48.2895 11.0448 46.8666 9.6165 46.8666 7.85461C46.8666 6.09271 48.2895 4.66442 50.0447 4.66442C51.8 4.66442 53.2229 6.09271 53.2229 7.85461ZM43.5676 15.0592C44.5791 15.0592 45.3991 14.2361 45.3991 13.2208C45.3991 12.2055 44.5791 11.3824 43.5676 11.3824C42.5561 11.3824 41.7361 12.2055 41.7361 13.2208C41.7361 14.2361 42.5561 15.0592 43.5676 15.0592Z" fill="#353535"/>
</svg>
