<?xml version="1.0" encoding="UTF-8"?>
<svg id="Calque_1" xmlns="http://www.w3.org/2000/svg" version="1.1" viewBox="0 0 428.2 91">
  <!-- Generator: Adobe Illustrator 29.8.5, SVG Export Plug-In . SVG Version: 2.1.1 Build 2)  -->
  <defs>
    <style>
      .st0 {
        fill: #353535;
      }
    </style>
  </defs>
  <path class="st0" d="M53.95,62.81c0,12.21-.98,16.57-4.77,20.75-4.29,4.87-12.24,7.45-22.93,7.45-9.13,0-14.86-1.49-20.99-5.57v-13.3c5.93,4.28,11.96,6.26,18.95,6.26s11.76-2.89,12.92-8.43c.13-.6.36-2.16.68-4.66.2-1.08.2-1.29.58-3.07h-.78c-1.56,3.97-2.62,5.75-4.57,7.24-2.62,2.09-6.89,3.38-11.27,3.38-6.31,0-12.06-2.68-15.94-7.45-3.61-4.36-5.83-12.01-5.83-20.15,0-8.84,2.62-16.18,7.29-20.46,3.79-3.38,8.65-5.16,14-5.16,8.25,0,13.32,3.58,15.74,11.11h.58l-.58-9.12h16.9v41.19h.02ZM17.6,48.01c0,7.45,3.68,12.11,9.51,12.11s9.81-4.77,9.81-12.6c0-3.97-.78-6.55-2.62-8.43-1.64-1.68-4.37-2.78-6.89-2.78-6.23,0-9.81,4.28-9.81,11.72v-.02Z"/>
  <path class="st0" d="M75.96,54.95c.48,7.55,5.55,11.52,14.28,11.52,7.87,0,13.12-2.68,17-8.63h.68v12.42c-5.83,6.26-12.34,8.94-21.47,8.94-17,0-27.3-11.52-27.3-30.49s10.01-29.09,27.22-29.09c15.74,0,24.59,10.03,24.59,27.91,0,2.78-.1,4.36-.58,7.45h-34.41l-.02-.02ZM98.79,42.63c-1.26-6.16-4.77-8.84-11.55-8.84s-10.88,3.07-11.18,8.84h22.73Z"/>
  <path class="st0" d="M169.03,22.09v16.18h-30.54c.2,5.46.3,8.94.3,15.28,0,4.56.38,7.14,1.46,8.84.98,1.6,3,2.58,5.35,2.58,3.79,0,6.91-1.68,9.81-5.46v12.91c-4.77,4.87-9.33,6.75-16.32,6.75s-11.96-2.29-14.58-6.44c-2.32-3.76-3.2-8.84-3.2-18.86,0-5.67.1-9.23.48-15.1h-9.03v-11.72c7.67-1.78,13.8-8.94,16.42-19.07h9.33v14.1h30.54l-.02.02Z"/>
  <path class="st0" d="M183.47,9.37c0,4.07-3.99,6.44-11.08,6.44s-10.7-2.37-10.7-6.55,3.79-6.55,10.7-6.55c7.57,0,11.08,2.09,11.08,6.65ZM163.44,22.09h18.26v55.1h-18.26V22.09Z"/>
  <path class="st0" d="M313.62,9.37c0,4.07-3.99,6.44-11.08,6.44s-10.69-2.37-10.69-6.55,3.78-6.55,10.69-6.55c7.57,0,11.08,2.09,11.08,6.65ZM293.6,22.09h18.26v55.1h-18.26V22.09Z"/>
  <path class="st0" d="M190.76,21.6h17v7.55c0,2.29-.1,3.76-.68,7.55h.68c1.06-5.75,2.24-8.35,5.05-11.31,3.5-3.76,8.17-5.75,13.7-5.75,6.23,0,11.48,2.58,14.18,6.96,2.52,4.07,2.82,5.57,2.82,16.67v33.94h-18.26v-27.11c0-6.44-.2-8.14-1.06-9.82-.98-1.78-3.4-3.07-5.93-3.07-3.51,0-6.61,2.09-8.07,5.26-.88,1.98-1.16,4.17-1.16,8.63v26.11h-18.27V21.6Z"/>
  <path class="st0" d="M286.57,41.16c-4.67-4.28-9.43-6.16-15.64-6.16-4.97,0-7.87,1.6-7.87,4.28,0,2.48,1.94,3.48,8.25,4.46,11.96,1.88,17.2,6.85,17.2,16.18,0,11.52-8.65,19.25-21.67,19.25-6.31,0-11.48-1.39-18.36-5.07v-15.1c5.35,4.66,10.29,6.65,16.32,6.65,5.05,0,7.77-1.49,7.77-4.28,0-1.39-.78-2.58-1.94-3.17-.91-.46-4.15-1.23-9.71-2.29-9.43-1.88-14.38-7.75-14.38-16.98,0-11.81,8.65-19.35,22.35-19.35,6.81,0,12.14,1.6,17.68,5.26v16.33Z"/>
  <path class="st0" d="M371.28,77.19h-16.8v-1.78c0-1.68.2-3.58.88-7.45h-.58c-4.08,7.94-8.85,11.21-16.42,11.21-5.55,0-10.79-2.39-14.58-6.55-4.18-4.56-6.81-13.71-6.81-23.22,0-10.93,3-20.26,8.17-24.82,3.58-3.27,8.07-4.97,13.12-4.97,7.29,0,11.48,2.78,14.86,9.92h.48c-.48-3.76-.58-4.56-.58-6.65V0h18.27v77.19ZM334.45,50.67c0,8.35,3.3,13.01,9.43,13.01s10.79-5.75,10.79-14.1c0-7.75-3.79-12.42-10.01-12.42s-10.19,4.87-10.19,13.5h-.02Z"/>
  <path class="st0" d="M393.19,54.95c.48,7.55,5.55,11.52,14.28,11.52,7.87,0,13.12-2.68,17-8.63h.68v12.42c-5.83,6.26-12.34,8.94-21.47,8.94-17,0-27.3-11.52-27.3-30.49s10.01-29.09,27.22-29.09c15.74,0,24.59,10.03,24.59,27.91,0,2.78-.1,4.36-.58,7.45h-34.41l-.02-.02ZM416.02,42.63c-1.26-6.16-4.77-8.84-11.55-8.84s-10.88,3.07-11.17,8.84h22.73Z"/>
</svg>